<svg width="93" height="78" viewBox="0 0 93 78" fill="none" xmlns="http://www.w3.org/2000/svg">
<path d="M92.0585 71.5491H0.176758V77.0147H92.0585V71.5491Z" fill="#50B848"/>
<path d="M46.1487 15.1412C55.9252 10.5802 66.3493 7.56099 77.0501 6.1909C68.8958 2.4056 58.0352 0 46.0956 0C34.156 0 23.3308 2.36138 15.1411 6.1909C25.8591 7.55996 36.3008 10.5791 46.0956 15.1412" fill="#50B848"/>
<path d="M46.0955 19.7578C34.4461 14.0588 21.807 10.6595 8.87052 9.74622C6.23256 11.5151 3.98185 13.802 2.25513 16.4678C17.563 16.5522 32.6164 20.3907 46.0955 27.6467C59.5952 20.3945 74.6648 16.5565 89.989 16.4678C88.2693 13.7934 86.0138 11.5047 83.3647 9.74622C70.4145 10.6618 57.7614 14.0608 46.0955 19.7578Z" fill="#50B848"/>
<path d="M48.2269 37.7203C48.2616 35.6257 48.9103 33.5874 50.0925 31.858C51.2748 30.1287 52.9385 28.7844 54.8776 27.9917C66.175 23.0778 78.3678 20.5573 90.6875 20.5892H91.7046C91.9157 21.497 92.0255 22.4254 92.0319 23.3574V45.1228H48.1738L48.2269 37.7203Z" fill="#50B848"/>
<path d="M44.0262 37.7203C43.9892 35.6262 43.3396 33.5889 42.1576 31.86C40.9757 30.1311 39.3131 28.7863 37.3754 27.9917C26.0778 23.0785 13.8851 20.5581 1.56546 20.5892H0.530715C0.329763 21.4983 0.226021 22.4263 0.221191 23.3574V45.1228H44.0969L44.0262 37.7203Z" fill="#50B848"/>
<path d="M33.9172 51.5967C33.9172 49.7395 37.3753 50.7123 37.3753 49.9075C37.3753 49.6599 37.1984 49.5891 36.7562 49.5891C35.1466 49.5891 32.8117 49.5891 29.7959 49.5891H25.9575L19.404 60.4585L12.7974 49.5891H8.88835C5.89018 49.5891 3.53765 49.5891 1.92802 49.5891C1.48581 49.5891 1.31777 49.6599 1.31777 49.9075C1.31777 50.7919 4.7758 49.7395 4.7758 51.5967V63.2268C4.7758 67.525 0 66.3664 0 67.2597C0 67.5073 0.282971 67.6135 0.787087 67.6135C2.42325 67.6135 3.94444 67.5604 5.43026 67.5604C6.91607 67.5604 8.41959 67.6135 10.0823 67.6135C10.5687 67.6135 10.8694 67.5073 10.8694 67.2597C10.8694 66.3753 6.08477 67.525 6.08477 63.2268V52.4369H6.17319L15.4242 67.3658C15.4813 67.483 15.5689 67.5827 15.6778 67.6542C15.7868 67.7258 15.913 67.7667 16.0432 67.7727C16.3262 67.7727 16.4147 67.6135 16.5739 67.3658L25.5772 52.2866H25.6568V65.6058C25.6568 67.4454 22.2165 66.4902 22.2165 67.2951C22.2165 67.525 22.3668 67.6135 22.8267 67.6135C24.4275 67.6135 26.7712 67.5604 29.7693 67.5604C32.7675 67.5604 35.0758 67.6135 36.7297 67.6135C37.1719 67.6135 37.3488 67.525 37.3488 67.2951C37.3488 66.4107 33.8907 67.4454 33.8907 65.6058L33.9172 51.5967Z" fill="#005BAA"/>
<path d="M63.846 61.3429C63.846 61.1042 63.731 60.945 63.3949 60.945C62.6166 60.945 62.9528 61.8294 61.4935 63.324C59.2054 65.722 56.0911 67.1605 52.782 67.3481C48.7137 67.3481 46.4142 65.2874 46.4142 58.5924C46.4142 53.8608 48.015 49.8544 52.782 49.8544C55.9216 49.8544 58.7606 51.6232 60.7417 53.6751C63.0854 56.1338 62.6343 56.9651 63.3949 56.9651C63.7841 56.9651 63.7841 56.7617 63.7841 56.4787V50.164C63.7841 49.7394 63.4834 49.6333 63.1915 49.6333C62.254 49.6333 62.9086 50.8538 61.467 50.8538C59.4947 50.8538 56.8591 49.2 52.2513 49.2C44.442 49.2 37.3755 52.8614 37.3755 58.5924C37.3755 64.3234 43.6991 67.976 52.4106 67.976C56.8326 67.976 60.105 66.5698 61.8296 66.5698C62.9793 66.5698 62.6078 67.5604 63.3861 67.5604C63.6779 67.5604 63.8371 67.4012 63.8371 67.0474L63.846 61.3429Z" fill="#005BAA"/>
<path d="M76.7671 50.1727H79.1992C82.162 50.1727 82.7368 50.7299 82.7368 53.7104C82.7368 57.2038 81.6756 57.6106 78.6686 57.6106H76.7318L76.7671 50.1727ZM68.5509 65.6057C68.5509 67.4453 65.0928 66.4901 65.0928 67.295C65.0928 67.5249 65.2608 67.6133 65.7207 67.6133C67.3127 67.6133 69.6565 67.5603 72.6546 67.5603C75.6528 67.5603 78.5006 67.6133 81.4988 67.6133C89.1136 67.6133 92.8103 65.8445 92.8103 62.3069C92.8103 58.7692 87.1413 58.1148 81.826 58.0705V57.9556C88.2026 57.9556 91.5014 56.3636 91.5014 53.9049C91.5014 51.4463 88.9101 49.6067 80.8885 49.6067C78.2352 49.6067 75.582 49.6067 72.6458 49.6067C69.7095 49.6067 67.3392 49.6067 65.7119 49.6067C65.252 49.6067 65.084 49.6774 65.084 49.9251C65.084 50.8095 68.5421 49.757 68.5421 51.6143L68.5509 65.6057ZM78.6244 58.2563C82.8165 58.2563 83.7539 59.3441 83.7539 62.581C83.7539 66.667 82.5777 66.9324 78.8278 66.9324C77.1828 66.9324 76.7671 66.6317 76.7671 65.9772V58.2209L78.6244 58.2563Z" fill="#005BAA"/>
</svg>
